<?xml version="1.0" standalone="no"?>
<!DOCTYPE svg PUBLIC "-//W3C//DTD SVG 20010904//EN"
 "http://www.w3.org/TR/2001/REC-SVG-20010904/DTD/svg10.dtd">
<svg version="1.0" xmlns="http://www.w3.org/2000/svg"
 width="496.000000pt" height="496.000000pt" viewBox="0 0 496.000000 496.000000"
 preserveAspectRatio="xMidYMid meet">

<g transform="translate(0.000000,496.000000) scale(0.100000,-0.100000)"
fill="#000000" stroke="none">
<path d="M2519 4896 c-3 -3 -58 -6 -124 -7 -214 -3 -454 -48 -701 -132 -402
-137 -772 -385 -1056 -707 -134 -151 -187 -225 -283 -395 -148 -261 -240 -543
-280 -859 -18 -144 -21 -484 -6 -607 33 -258 119 -526 257 -801 181 -361 455
-672 810 -921 104 -73 359 -204 496 -256 105 -40 364 -110 483 -130 166 -29
458 -36 645 -15 434 48 785 185 1160 454 227 163 432 383 627 675 213 318 395
884 334 1033 -36 86 -158 74 -207 -19 -8 -16 -32 -101 -54 -187 -60 -243 -134
-434 -240 -617 -139 -242 -366 -503 -570 -657 -347 -261 -602 -372 -987 -429
-321 -47 -697 -19 -980 72 -420 136 -747 346 -1002 644 -191 222 -295 390
-394 635 -64 157 -97 275 -129 455 -20 113 -23 163 -22 385 0 270 7 330 58
533 13 50 27 109 31 131 7 42 24 82 114 266 149 304 324 521 601 746 151 122
405 271 570 333 411 153 746 190 1155 127 376 -58 594 -147 930 -375 406 -277
730 -741 870 -1249 48 -173 77 -215 156 -228 32 -5 40 -2 74 31 37 38 37 38
31 99 -28 251 -175 609 -367 892 -133 195 -372 449 -550 583 -73 56 -257 173
-349 223 -239 129 -659 250 -935 268 -158 11 -161 11 -166 6z"/>
<path d="M2365 4564 c-178 -19 -432 -75 -579 -129 -362 -132 -640 -329 -892
-635 -134 -162 -175 -227 -288 -455 -75 -150 -124 -294 -163 -479 -26 -122
-28 -148 -28 -366 0 -255 10 -333 75 -566 63 -231 210 -517 376 -736 220 -290
618 -568 984 -688 105 -35 366 -85 541 -105 77 -8 93 7 87 87 -6 80 -24 96
-119 109 -285 37 -476 85 -654 165 -191 86 -404 248 -605 460 -107 113 -140
155 -216 279 -77 127 -107 193 -180 405 -73 210 -94 341 -94 575 0 332 45 526
194 838 154 323 404 596 721 789 80 49 261 131 360 163 314 103 640 129 946
75 105 -18 153 -30 372 -90 76 -21 78 -21 115 -3 69 34 67 100 -5 149 -52 35
-312 102 -503 130 -170 24 -363 36 -445 28z"/>
<path d="M3500 4261 c-13 -25 -13 -107 0 -132 19 -34 68 -52 127 -46 29 3 57
8 63 12 16 10 12 83 -6 111 -41 61 -161 97 -184 55z"/>
<path d="M2245 4241 c-240 -43 -408 -100 -590 -198 -181 -99 -269 -166 -419
-318 -203 -207 -334 -427 -436 -735 -56 -168 -70 -269 -70 -499 0 -280 26
-410 135 -678 80 -195 140 -292 307 -491 245 -291 638 -513 1044 -588 126 -24
538 -27 649 -5 95 18 409 123 487 162 434 218 716 526 897 981 42 105 46 139
26 182 -33 70 -99 95 -163 62 -44 -23 -58 -44 -120 -193 -112 -270 -222 -429
-412 -599 -122 -109 -203 -164 -353 -237 -150 -74 -223 -100 -352 -128 -243
-51 -480 -51 -690 0 -313 76 -523 182 -735 373 -167 150 -249 261 -345 461
-118 247 -145 369 -152 683 -6 242 1 298 68 503 46 143 88 231 167 351 163
249 367 433 613 555 206 101 385 150 613 166 261 19 429 -6 696 -103 290 -105
551 -314 732 -582 71 -107 102 -168 153 -298 20 -54 46 -110 58 -124 24 -31
74 -54 118 -54 44 0 109 65 109 109 0 80 -134 350 -258 521 -69 96 -234 263
-337 344 -109 85 -256 183 -313 208 -161 69 -478 159 -632 178 -131 16 -379
11 -495 -9z"/>
<path d="M2370 3729 c-270 -30 -532 -154 -725 -344 -179 -177 -281 -366 -341
-635 -27 -117 -24 -388 5 -505 75 -311 159 -454 387 -660 155 -140 367 -254
539 -290 39 -8 135 -20 215 -26 173 -14 301 1 453 51 84 28 124 49 272 145 78
51 269 228 308 287 19 29 45 62 57 73 29 26 119 161 126 191 10 41 -6 62 -94
120 -48 31 -97 66 -110 77 -27 25 -28 24 -80 -73 -22 -41 -53 -90 -68 -108
l-27 -34 -79 153 c-44 85 -116 222 -161 304 -44 83 -143 269 -220 415 -77 146
-155 289 -174 319 l-35 54 -83 -6 c-46 -3 -97 -13 -113 -21 -32 -17 -75 -84
-153 -236 -51 -101 -137 -259 -217 -398 -57 -99 -160 -289 -238 -439 -37 -73
-70 -133 -73 -133 -19 1 -100 148 -130 235 -60 177 -55 364 16 578 93 282 351
526 632 598 100 26 299 35 416 20 50 -7 133 -27 187 -45 274 -93 458 -277 537
-536 15 -49 20 -55 47 -58 18 -2 59 12 110 36 44 22 95 43 113 47 31 7 33 9
27 43 -11 64 -119 273 -183 352 -56 70 -156 166 -248 237 -103 79 -292 160
-451 192 -118 24 -325 33 -444 20z m212 -1021 c116 -200 198 -347 198 -357 0
-14 -55 -16 -307 -13 l-232 3 28 47 c15 26 33 63 41 82 7 19 22 47 32 62 10
15 28 49 40 75 18 43 124 213 132 213 2 0 32 -51 68 -112z m327 -654 c27 -6
37 -17 67 -75 19 -38 49 -93 68 -122 53 -82 53 -86 -2 -139 -54 -53 -95 -75
-207 -113 -149 -50 -390 -55 -560 -10 -98 26 -222 91 -277 146 l-49 49 47 88
c26 48 56 105 68 127 11 22 25 43 30 47 13 9 771 11 815 2z"/>
<path d="M4195 2669 c-37 -21 -67 -54 -87 -93 -67 -131 110 -286 233 -203 102
68 105 191 7 270 -42 33 -118 46 -153 26z"/>
<path d="M3509 806 c-4 -5 -35 -12 -60 -15 -4 -1 -10 -17 -14 -37 -15 -82 40
-123 110 -84 20 11 42 20 51 20 8 0 12 5 9 10 -3 6 -3 10 2 10 4 1 26 17 48
36 22 20 34 34 26 32 -7 -2 -16 3 -19 11 -3 9 0 11 8 6 8 -5 11 -4 7 1 -6 10
-159 19 -168 10z"/>
<path d="M3081 675 c-152 -52 -176 -72 -169 -147 7 -72 20 -82 99 -74 95 9
190 40 222 74 35 36 49 85 36 120 -11 27 -48 73 -58 71 -3 -1 -62 -20 -130
-44z"/>
<path d="M2655 598 c-32 -17 -45 -39 -45 -77 0 -42 29 -94 61 -112 34 -18 95
4 119 44 30 48 26 83 -14 123 -36 36 -81 44 -121 22z"/>
</g>
</svg>
